<?xml version="1.0" encoding="UTF-8"?>
<svg width="32" height="32" viewBox="0 0 32 32" fill="none" xmlns="http://www.w3.org/2000/svg">
  <rect width="32" height="32" rx="8" fill="#2563EB"/>
  <path d="M16 7C15.2044 7 14.4413 7.31607 13.8787 7.87868C13.3161 8.44129 13 9.20435 13 10V11H12C11.4477 11 11 11.4477 11 12C11 12.5523 11.4477 13 12 13H13V21H12C11.4477 21 11 21.4477 11 22C11 22.5523 11.4477 23 12 23H20C20.5523 23 21 22.5523 21 22C21 21.4477 20.5523 21 20 21H19V13H20C20.5523 13 21 12.5523 21 12C21 11.4477 20.5523 11 20 11H19V10C19 9.20435 18.6839 8.44129 18.1213 7.87868C17.5587 7.31607 16.7956 7 16 7Z" fill="white"/>
  <path d="M15 13H17V21H15V13Z" fill="white"/>
</svg>